<svg id="Layer_1" data-name="Layer 1" xmlns="http://www.w3.org/2000/svg" viewBox="0 0 869.2 887.73"><defs><style>.cls-1{fill:#1d1d1b;}.cls-2{fill:#fff;}</style></defs><title>Mobilize_earthArtboard 2</title><path class="cls-1" d="M434.6,765.68a321.81,321.81,0,1,1,227.56-94.26A319.7,319.7,0,0,1,434.6,765.68Zm0-616.62A294.8,294.8,0,1,0,643.06,235.4,292.88,292.88,0,0,0,434.6,149.06Z"/><path class="cls-1" d="M434.6,733.49a289.63,289.63,0,1,1,204.8-84.83A287.73,287.73,0,0,1,434.6,733.49Zm0-552.25a262.62,262.62,0,1,0,185.71,76.92A260.9,260.9,0,0,0,434.6,181.24Z"/><path class="cls-1" d="M434.6,701.31a257.43,257.43,0,1,1,182-75.4A255.78,255.78,0,0,1,434.6,701.31Zm0-487.89a230.46,230.46,0,1,0,162.95,67.5A228.94,228.94,0,0,0,434.6,213.42Z"/><path class="cls-1" d="M434.6,669.13a225.27,225.27,0,1,1,159.29-66A223.79,223.79,0,0,1,434.6,669.13Zm0-423.53c-109.32,0-198.26,88.94-198.26,198.27S325.28,642.13,434.6,642.13s198.27-88.94,198.27-198.26S543.93,245.6,434.6,245.6Z"/><path class="cls-1" d="M434.6,637c-106.47,0-193.08-86.62-193.08-193.08S328.13,250.78,434.6,250.78,627.69,337.4,627.69,443.87,541.07,637,434.6,637Zm0-359.17c-91.58,0-166.08,74.51-166.08,166.09S343,610,434.6,610s166.09-74.5,166.09-166.08S526.18,277.78,434.6,277.78Z"/><path class="cls-1" d="M434.6,604.77c-88.72,0-160.9-72.18-160.9-160.9S345.88,283,434.6,283s160.91,72.18,160.91,160.91S523.33,604.77,434.6,604.77Zm0-294.81C360.77,310,300.7,370,300.7,443.87s60.07,133.9,133.9,133.9,133.91-60.07,133.91-133.9S508.44,310,434.6,310Z"/><path class="cls-1" d="M434.6,572.59A128.87,128.87,0,0,1,305.88,443.87c0-71,57.74-128.73,128.72-128.73A128.88,128.88,0,0,1,563.33,443.87C563.33,514.84,505.58,572.59,434.6,572.59Zm0-230.45A101.73,101.73,0,1,0,536.33,443.87,101.84,101.84,0,0,0,434.6,342.14Z"/><path class="cls-1" d="M434.6,540.41a96.55,96.55,0,1,1,96.54-96.54A96.65,96.65,0,0,1,434.6,540.41Zm0-166.09a69.55,69.55,0,1,0,69.54,69.55A69.63,69.63,0,0,0,434.6,374.32Z"/><path class="cls-1" d="M434.6,508.23A64.36,64.36,0,1,1,499,443.87,64.44,64.44,0,0,1,434.6,508.23Zm0-101.72A37.36,37.36,0,1,0,472,443.87,37.4,37.4,0,0,0,434.6,406.51Z"/><path class="cls-1" d="M434.6,476.05a32.18,32.18,0,1,1,32.18-32.18A32.22,32.22,0,0,1,434.6,476.05Zm0-37.36a5.18,5.18,0,1,0,5.18,5.18A5.19,5.19,0,0,0,434.6,438.69Z"/><path class="cls-2" d="M358.13,366.86c-7.67,0-13.46,5.48-13.46,12.76s5.79,12.76,13.46,12.76c7.51,0,13.17-5.49,13.17-12.76S365.64,366.86,358.13,366.86Z"/><polygon class="cls-2" points="447.34 452.5 477.48 452.5 477.48 443.02 458.67 443.02 458.67 431.28 475.35 431.28 475.35 422.02 458.67 422.02 458.67 410.99 477.48 410.99 477.48 401.5 447.34 401.5 447.34 452.5"/><path class="cls-2" d="M498.28,401.5l-18.32,51h11.92l3.27-9.44h18.74l3.26,9.44h12l-18.32-51Zm12.43,32.23H498.32l6.2-17.9Z"/><path class="cls-2" d="M569.86,417.46c0-9.65-7.29-15.88-18.58-15.88H532v50.93h11.33V433.2h3.58l10.93,19.31H571l-12-20.37C565.79,430,569.86,424.54,569.86,417.46Zm-26.54-6.26h7.6c4.86,0,7.33,2.18,7.33,6.47s-2.54,6.69-7.33,6.69h-7.6Z"/><polygon class="cls-2" points="571.23 410.99 584.43 410.99 584.43 452.5 595.76 452.5 595.76 410.99 608.96 410.99 608.96 401.58 571.23 401.58 571.23 410.99"/><polygon class="cls-2" points="642.45 401.58 642.45 421.94 622.63 421.94 622.63 401.58 611.3 401.58 611.3 452.5 622.63 452.5 622.63 431.43 642.45 431.43 642.45 452.5 653.78 452.5 653.78 401.58 642.45 401.58"/><polygon class="cls-2" points="474.42 378.25 460.57 345.88 447.34 345.88 447.34 395.74 459.82 395.74 459.82 371.58 469.83 395.74 479 395.74 488.94 371.62 488.94 395.74 501.42 395.74 501.42 345.88 488.26 345.88 474.42 378.25"/><path class="cls-2" d="M530.09,345.21c-14.55,0-25.53,11-25.53,25.46s11,25.54,25.53,25.54,25.47-11,25.47-25.54S544.61,345.21,530.09,345.21Zm12.72,25.46c0,8.54-5,14.06-12.72,14.06s-12.78-5.52-12.78-14.06,5-13.92,12.78-13.92S542.81,362.22,542.81,370.67Z"/><path class="cls-2" d="M590.81,370a12,12,0,0,0,5.49-10.52c0-8.27-6.58-13.61-16.76-13.61H558.7v49.86h21.71c10.31,0,17-5.58,17-14.21A13.11,13.11,0,0,0,590.81,370Zm-12.61-4.84h-7v-8.62h7c3.6,0,5.42,1.46,5.42,4.34C583.62,362,583.62,365.17,578.2,365.17Zm-7,10.34h7.69c1.77,0,5.89.47,5.89,4.88,0,3.81-3.09,4.61-5.69,4.61h-7.89Z"/><rect class="cls-2" x="600.09" y="345.88" width="12.48" height="49.86"/><polygon class="cls-2" points="628.54 345.88 616.05 345.88 616.05 395.74 643.94 395.74 643.94 385.2 628.54 385.2 628.54 345.88"/><rect class="cls-2" x="647.92" y="345.88" width="12.48" height="49.86"/><polygon class="cls-2" points="663.95 356.89 683.52 356.89 663.95 386.48 663.95 395.74 698.95 395.74 698.95 384.73 679.26 384.73 698.95 355.13 698.95 345.88 663.95 345.88 663.95 356.89"/><polygon class="cls-2" points="732.98 356.55 732.98 345.81 702.74 345.81 702.74 395.74 732.98 395.74 732.98 385 715.22 385 715.22 375.71 730.97 375.71 730.97 365.17 715.22 365.17 715.22 356.55 732.98 356.55"/><circle class="cls-2" cx="434.6" cy="443.87" r="7.11"/><path class="cls-2" d="M434.6,451.88a8,8,0,1,1,8-8A8,8,0,0,1,434.6,451.88Zm0-14.21a6.2,6.2,0,1,0,6.2,6.2A6.2,6.2,0,0,0,434.6,437.67Z"/></svg>